<svg xmlns="http://www.w3.org/2000/svg" viewBox="0 0 8158.408 1584" width="8158.408" height="1584" role="img" aria-label="devrodri wordmark W1 negro">
<title>devrodri wordmark W1 negro</title>
<desc>devrodri — wordmark W1. Contornos vectoriales, sin texto vivo y sin dependencia de fuentes. Inter SemiBold (d, e, v, o, i) + r propia W1. em=2048, linea base y=1561.</desc>
<path fill="#000000" fill-rule="nonzero" d="M461 1581Q329 1581 224.5 1513.5Q120 1446 60 1317Q0 1188 0 1004Q0 818 61.5 689.5Q123 561 227.5 495Q332 429 460 429Q560 429 623.5 462.5Q687 496 724.5 542Q762 588 781 628L792 628L792 71L1052 71L1052 1561L797 1561L797 1384L781 1384Q761 1424 722.5 1470Q684 1516 621 1548.5Q558 1581 461 1581ZM532 1367Q617 1367 676 1321.5Q735 1276 766 1194Q797 1112 797 1003Q797 894 766.5 813.5Q736 733 676.5 688Q617 643 532 643Q444 643 385 689.5Q326 736 296 817.5Q266 899 266 1003Q266 1107 296 1189.5Q326 1272 385.5 1319.5Q445 1367 532 1367ZM1821 1584Q1652 1584 1530.5 1513Q1409 1442 1343.5 1313Q1278 1184 1278 1009Q1278 836 1342.5 706Q1407 576 1525.5 502.5Q1644 429 1804 429Q1906 429 1998.5 462Q2091 495 2162.5 564Q2234 633 2274.5 739.5Q2315 846 2315 993L2315 1075L1401 1075L1401 898L2186 898L2064 950Q2064 856 2035 784.5Q2006 713 1948.5 673Q1891 633 1805 633Q1719 633 1659 673.5Q1599 714 1567.5 781.5Q1536 849 1536 932L1536 1054Q1536 1160 1572 1233Q1608 1306 1673 1343Q1738 1380 1824 1380Q1881 1380 1927.5 1363.5Q1974 1347 2008 1314.5Q2042 1282 2059 1235L2298 1284Q2271 1374 2206 1441.5Q2141 1509 2043.5 1546.5Q1946 1584 1821 1584ZM2817 1561L2401 443L2679 443L2883 1051Q2919 1158 2945 1266Q2971 1374 2998 1485L2933 1485Q2961 1374 2986.5 1266Q3012 1158 3047 1051L3250 443L3526 443L3108 1561ZM3671.52 1561L3671.52 428.456L3931.616 428.456L3931.616 844.2C3931.616 594.754 4015.021 428.456 4116.96 428.456L4250.08 428.456C4309.984 428.456 4342.24 460.712 4342.24 520.616L4342.24 905.64C4087.653 905.64 3931.616 980.904 3931.616 1120.68L3931.616 1561ZM4946.864 1584Q4783.864 1584 4663.864 1511.5Q4543.864 1439 4478.364 1309.5Q4412.864 1180 4412.864 1008Q4412.864 834 4478.364 703.5Q4543.864 573 4663.864 501Q4783.864 429 4946.864 429Q5110.864 429 5230.864 501Q5350.864 573 5416.364 703.5Q5481.864 834 5481.864 1008Q5481.864 1180 5416.364 1309.5Q5350.864 1439 5230.864 1511.5Q5110.864 1584 4946.864 1584ZM4946.864 1373Q5037.864 1373 5098.364 1324Q5158.864 1275 5188.364 1192Q5217.864 1109 5217.864 1007Q5217.864 904 5188.364 821Q5158.864 738 5098.364 689Q5037.864 640 4946.864 640Q4855.864 640 4796.364 689Q4736.864 738 4707.364 820.5Q4677.864 903 4677.864 1007Q4677.864 1109 4707.364 1192Q4736.864 1275 4796.364 1324Q4855.864 1373 4946.864 1373ZM6120.864 1581Q5988.864 1581 5884.364 1513.5Q5779.864 1446 5719.864 1317Q5659.864 1188 5659.864 1004Q5659.864 818 5721.364 689.5Q5782.864 561 5887.364 495Q5991.864 429 6119.864 429Q6219.864 429 6283.364 462.5Q6346.864 496 6384.364 542Q6421.864 588 6440.864 628L6451.864 628L6451.864 71L6711.864 71L6711.864 1561L6456.864 1561L6456.864 1384L6440.864 1384Q6420.864 1424 6382.364 1470Q6343.864 1516 6280.864 1548.5Q6217.864 1581 6120.864 1581ZM6191.864 1367Q6276.864 1367 6335.864 1321.5Q6394.864 1276 6425.864 1194Q6456.864 1112 6456.864 1003Q6456.864 894 6426.364 813.5Q6395.864 733 6336.364 688Q6276.864 643 6191.864 643Q6103.864 643 6044.864 689.5Q5985.864 736 5955.864 817.5Q5925.864 899 5925.864 1003Q5925.864 1107 5955.864 1189.5Q5985.864 1272 6045.364 1319.5Q6104.864 1367 6191.864 1367ZM6987.104 1561L6987.104 428.456L7247.2 428.456L7247.2 844.2C7247.2 594.754 7330.605 428.456 7432.544 428.456L7565.664 428.456C7625.568 428.456 7657.824 460.712 7657.824 520.616L7657.824 905.64C7403.237 905.64 7247.2 980.904 7247.2 1120.68L7247.2 1561ZM7876.408 1561L7876.408 443L8136.408 443L8136.408 1561ZM8006.408 285Q7944.408 285 7899.908 243Q7855.408 201 7855.408 143Q7855.408 83 7899.908 41.5Q7944.408 0 8006.408 0Q8069.408 0 8113.908 41.5Q8158.408 83 8158.408 142Q8158.408 201 8113.908 243Q8069.408 285 8006.408 285Z"></path>
</svg>